<mxfile host="app.diagrams.net" agent="Mozilla/5.0 (Windows NT 10.0; Win64; x64) AppleWebKit/537.36 (KHTML, like Gecko) Chrome/131.0.0.0 Safari/537.36 Edg/131.0.0.0" version="24.9.3">
  <diagram name="Страница — 1" id="cTJfV2voNKEqNdbQQLsF">
    <mxGraphModel dx="1489" dy="773" grid="1" gridSize="10" guides="1" tooltips="1" connect="1" arrows="1" fold="1" page="1" pageScale="1" pageWidth="1384" pageHeight="980" math="0" shadow="0">
      <root>
        <mxCell id="0" />
        <mxCell id="1" parent="0" />
        <mxCell id="w40wIDj-dIm5_w_txSoR-1" value="Пользователи" style="rounded=0;whiteSpace=wrap;html=1;" vertex="1" parent="1">
          <mxGeometry x="500" y="160" width="120" height="60" as="geometry" />
        </mxCell>
        <mxCell id="w40wIDj-dIm5_w_txSoR-2" value="Заказы" style="rounded=0;whiteSpace=wrap;html=1;" vertex="1" parent="1">
          <mxGeometry x="500" y="290" width="120" height="60" as="geometry" />
        </mxCell>
        <mxCell id="w40wIDj-dIm5_w_txSoR-3" value="Блюда" style="rounded=0;whiteSpace=wrap;html=1;" vertex="1" parent="1">
          <mxGeometry x="500" y="420" width="120" height="60" as="geometry" />
        </mxCell>
        <mxCell id="w40wIDj-dIm5_w_txSoR-4" value="" style="endArrow=classic;html=1;rounded=0;exitX=0.5;exitY=1;exitDx=0;exitDy=0;entryX=0.5;entryY=0;entryDx=0;entryDy=0;" edge="1" parent="1" source="w40wIDj-dIm5_w_txSoR-1" target="w40wIDj-dIm5_w_txSoR-2">
          <mxGeometry width="50" height="50" relative="1" as="geometry">
            <mxPoint x="550" y="290" as="sourcePoint" />
            <mxPoint x="600" y="240" as="targetPoint" />
          </mxGeometry>
        </mxCell>
        <mxCell id="w40wIDj-dIm5_w_txSoR-5" value="" style="endArrow=classic;html=1;rounded=0;exitX=0.5;exitY=1;exitDx=0;exitDy=0;entryX=0.5;entryY=0;entryDx=0;entryDy=0;" edge="1" parent="1" source="w40wIDj-dIm5_w_txSoR-2" target="w40wIDj-dIm5_w_txSoR-3">
          <mxGeometry width="50" height="50" relative="1" as="geometry">
            <mxPoint x="550" y="290" as="sourcePoint" />
            <mxPoint x="600" y="240" as="targetPoint" />
          </mxGeometry>
        </mxCell>
        <mxCell id="w40wIDj-dIm5_w_txSoR-6" value="&lt;span style=&quot;color: rgba(0, 0, 0, 0); font-family: monospace; font-size: 0px; text-align: start; text-wrap-mode: nowrap;&quot;&gt;%3CmxGraphModel%3E%3Croot%3E%3CmxCell%20id%3D%220%22%2F%3E%3CmxCell%20id%3D%221%22%20parent%3D%220%22%2F%3E%3CmxCell%20id%3D%222%22%20value%3D%22%22%20style%3D%22rounded%3D0%3BwhiteSpace%3Dwrap%3Bhtml%3D1%3B%22%20vertex%3D%221%22%20parent%3D%221%22%3E%3CmxGeometry%20x%3D%22460%22%20y%3D%22160%22%20width%3D%2240%22%20height%3D%2220%22%20as%3D%22geometry%22%2F%3E%3C%2FmxCell%3E%3C%2Froot%3E%3C%2FmxGraphModel%3E&lt;/span&gt;" style="rounded=0;whiteSpace=wrap;html=1;" vertex="1" parent="1">
          <mxGeometry x="500" y="270" width="40" height="20" as="geometry" />
        </mxCell>
        <mxCell id="w40wIDj-dIm5_w_txSoR-7" value="&lt;span style=&quot;color: rgba(0, 0, 0, 0); font-family: monospace; font-size: 0px; text-align: start; text-wrap-mode: nowrap;&quot;&gt;%3CmxGraphModel%3E%3Croot%3E%3CmxCell%20id%3D%220%22%2F%3E%3CmxCell%20id%3D%221%22%20parent%3D%220%22%2F%3E%3CmxCell%20id%3D%222%22%20value%3D%22%22%20style%3D%22rounded%3D0%3BwhiteSpace%3Dwrap%3Bhtml%3D1%3B%22%20vertex%3D%221%22%20parent%3D%221%22%3E%3CmxGeometry%20x%3D%22460%22%20y%3D%22160%22%20width%3D%2240%22%20height%3D%2220%22%20as%3D%22geometry%22%2F%3E%3C%2FmxCell%3E%3C%2Froot%3E%3C%2FmxGraphModel%3E&lt;/span&gt;" style="rounded=0;whiteSpace=wrap;html=1;" vertex="1" parent="1">
          <mxGeometry x="500" y="400" width="40" height="20" as="geometry" />
        </mxCell>
        <mxCell id="w40wIDj-dIm5_w_txSoR-8" value="&lt;span style=&quot;color: rgba(0, 0, 0, 0); font-family: monospace; font-size: 0px; text-align: start; text-wrap-mode: nowrap;&quot;&gt;%3CmxGraphModel%3E%3Croot%3E%3CmxCell%20id%3D%220%22%2F%3E%3CmxCell%20id%3D%221%22%20parent%3D%220%22%2F%3E%3CmxCell%20id%3D%222%22%20value%3D%22%22%20style%3D%22rounded%3D0%3BwhiteSpace%3Dwrap%3Bhtml%3D1%3B%22%20vertex%3D%221%22%20parent%3D%221%22%3E%3CmxGeometry%20x%3D%22460%22%20y%3D%22160%22%20width%3D%2240%22%20height%3D%2220%22%20as%3D%22geometry%22%2F%3E%3C%2FmxCell%3E%3C%2Froot%3E%3C%2FmxGraphModel%3E&lt;/span&gt;" style="rounded=0;whiteSpace=wrap;html=1;" vertex="1" parent="1">
          <mxGeometry x="500" y="140" width="40" height="20" as="geometry" />
        </mxCell>
        <mxCell id="w40wIDj-dIm5_w_txSoR-9" value="" style="group" vertex="1" connectable="0" parent="1">
          <mxGeometry x="90" y="30" width="930" height="90" as="geometry" />
        </mxCell>
        <mxCell id="w40wIDj-dIm5_w_txSoR-10" value="" style="endArrow=none;html=1;rounded=0;" edge="1" parent="w40wIDj-dIm5_w_txSoR-9">
          <mxGeometry width="50" height="50" relative="1" as="geometry">
            <mxPoint x="930" y="89.3591415103801" as="sourcePoint" />
            <mxPoint x="930" as="targetPoint" />
          </mxGeometry>
        </mxCell>
        <mxCell id="w40wIDj-dIm5_w_txSoR-11" value="" style="endArrow=none;html=1;rounded=0;" edge="1" parent="w40wIDj-dIm5_w_txSoR-9">
          <mxGeometry width="50" height="50" relative="1" as="geometry">
            <mxPoint y="89.3591415103801" as="sourcePoint" />
            <mxPoint as="targetPoint" />
          </mxGeometry>
        </mxCell>
        <mxCell id="w40wIDj-dIm5_w_txSoR-12" value="" style="endArrow=none;html=1;rounded=0;" edge="1" parent="w40wIDj-dIm5_w_txSoR-9">
          <mxGeometry width="50" height="50" relative="1" as="geometry">
            <mxPoint as="sourcePoint" />
            <mxPoint x="930" as="targetPoint" />
          </mxGeometry>
        </mxCell>
        <mxCell id="w40wIDj-dIm5_w_txSoR-13" value="" style="endArrow=none;html=1;rounded=0;entryX=1;entryY=0;entryDx=0;entryDy=0;" edge="1" parent="w40wIDj-dIm5_w_txSoR-9" target="w40wIDj-dIm5_w_txSoR-14">
          <mxGeometry width="50" height="50" relative="1" as="geometry">
            <mxPoint x="116.25" y="89.3591415103801" as="sourcePoint" />
            <mxPoint x="116.25" y="9.928793501153336" as="targetPoint" />
          </mxGeometry>
        </mxCell>
        <mxCell id="w40wIDj-dIm5_w_txSoR-14" value="Используются:" style="text;html=1;align=left;verticalAlign=middle;whiteSpace=wrap;rounded=0;" vertex="1" parent="w40wIDj-dIm5_w_txSoR-9">
          <mxGeometry x="11.624999999999998" width="104.62499999999996" height="29.78638050346003" as="geometry" />
        </mxCell>
        <mxCell id="w40wIDj-dIm5_w_txSoR-15" value="Автор: Ксюф Николай" style="text;html=1;align=left;verticalAlign=middle;whiteSpace=wrap;rounded=0;" vertex="1" parent="w40wIDj-dIm5_w_txSoR-9">
          <mxGeometry x="127.87499999999999" width="162.74999999999994" height="29.78638050346003" as="geometry" />
        </mxCell>
        <mxCell id="w40wIDj-dIm5_w_txSoR-16" value="Проект: Шашлычная" style="text;html=1;align=left;verticalAlign=middle;whiteSpace=wrap;rounded=0;" vertex="1" parent="w40wIDj-dIm5_w_txSoR-9">
          <mxGeometry x="127.87999999999994" y="29.786380503460038" width="202.11999999999998" height="9.928793501153343" as="geometry" />
        </mxCell>
        <mxCell id="w40wIDj-dIm5_w_txSoR-17" value="Замечания: 1 2 3 4 5 6 7 8 9&amp;nbsp;" style="text;html=1;align=left;verticalAlign=middle;whiteSpace=wrap;rounded=0;" vertex="1" parent="w40wIDj-dIm5_w_txSoR-9">
          <mxGeometry x="127.87499999999999" y="69.5015545080734" width="197.62499999999997" height="9.928793501153343" as="geometry" />
        </mxCell>
        <mxCell id="w40wIDj-dIm5_w_txSoR-18" value="Дата: 30/11/2024" style="text;html=1;align=left;verticalAlign=middle;whiteSpace=wrap;rounded=0;" vertex="1" parent="w40wIDj-dIm5_w_txSoR-9">
          <mxGeometry x="348.74999999999994" width="116.25" height="29.78638050346003" as="geometry" />
        </mxCell>
        <mxCell id="w40wIDj-dIm5_w_txSoR-19" value="Пересмотр:&amp;nbsp;" style="text;html=1;align=left;verticalAlign=middle;whiteSpace=wrap;rounded=0;" vertex="1" parent="w40wIDj-dIm5_w_txSoR-9">
          <mxGeometry x="348.74999999999994" y="19.857587002306673" width="116.25" height="29.78638050346003" as="geometry" />
        </mxCell>
        <mxCell id="w40wIDj-dIm5_w_txSoR-20" value="" style="endArrow=none;html=1;rounded=0;" edge="1" parent="w40wIDj-dIm5_w_txSoR-9">
          <mxGeometry width="50" height="50" relative="1" as="geometry">
            <mxPoint x="488.25" y="89.3591415103801" as="sourcePoint" />
            <mxPoint x="488.25" as="targetPoint" />
          </mxGeometry>
        </mxCell>
        <mxCell id="w40wIDj-dIm5_w_txSoR-21" value="Рабочая версия" style="text;html=1;align=left;verticalAlign=middle;whiteSpace=wrap;rounded=0;" vertex="1" parent="w40wIDj-dIm5_w_txSoR-9">
          <mxGeometry x="523.125" y="9.928793501153336" width="116.25" height="9.928793501153343" as="geometry" />
        </mxCell>
        <mxCell id="w40wIDj-dIm5_w_txSoR-22" value="Эскиз" style="text;html=1;align=left;verticalAlign=middle;whiteSpace=wrap;rounded=0;" vertex="1" parent="w40wIDj-dIm5_w_txSoR-9">
          <mxGeometry x="523.125" y="29.786380503460038" width="116.25" height="9.928793501153343" as="geometry" />
        </mxCell>
        <mxCell id="w40wIDj-dIm5_w_txSoR-23" value="Рекомендации" style="text;html=1;align=left;verticalAlign=middle;whiteSpace=wrap;rounded=0;" vertex="1" parent="w40wIDj-dIm5_w_txSoR-9">
          <mxGeometry x="523.125" y="49.64396750576671" width="116.25" height="9.928793501153343" as="geometry" />
        </mxCell>
        <mxCell id="w40wIDj-dIm5_w_txSoR-24" value="Публикация" style="text;html=1;align=left;verticalAlign=middle;whiteSpace=wrap;rounded=0;" vertex="1" parent="w40wIDj-dIm5_w_txSoR-9">
          <mxGeometry x="523.125" y="69.5015545080734" width="116.25" height="9.928793501153343" as="geometry" />
        </mxCell>
        <mxCell id="w40wIDj-dIm5_w_txSoR-25" value="" style="endArrow=none;html=1;rounded=0;" edge="1" parent="w40wIDj-dIm5_w_txSoR-9">
          <mxGeometry width="50" height="50" relative="1" as="geometry">
            <mxPoint x="511.49999999999994" y="89.3591415103801" as="sourcePoint" />
            <mxPoint x="511.49999999999994" as="targetPoint" />
          </mxGeometry>
        </mxCell>
        <mxCell id="w40wIDj-dIm5_w_txSoR-26" value="" style="endArrow=none;html=1;rounded=0;" edge="1" parent="w40wIDj-dIm5_w_txSoR-9">
          <mxGeometry width="50" height="50" relative="1" as="geometry">
            <mxPoint x="488.25" y="66.5229164577274" as="sourcePoint" />
            <mxPoint x="511.49999999999994" y="66.5229164577274" as="targetPoint" />
          </mxGeometry>
        </mxCell>
        <mxCell id="w40wIDj-dIm5_w_txSoR-27" value="" style="endArrow=none;html=1;rounded=0;" edge="1" parent="w40wIDj-dIm5_w_txSoR-9">
          <mxGeometry width="50" height="50" relative="1" as="geometry">
            <mxPoint x="488.25" y="45.67245010530539" as="sourcePoint" />
            <mxPoint x="511.49999999999994" y="45.67245010530539" as="targetPoint" />
          </mxGeometry>
        </mxCell>
        <mxCell id="w40wIDj-dIm5_w_txSoR-28" value="" style="endArrow=none;html=1;rounded=0;" edge="1" parent="w40wIDj-dIm5_w_txSoR-9">
          <mxGeometry width="50" height="50" relative="1" as="geometry">
            <mxPoint x="488.25" y="23.829104402768024" as="sourcePoint" />
            <mxPoint x="511.49999999999994" y="23.829104402768024" as="targetPoint" />
          </mxGeometry>
        </mxCell>
        <mxCell id="w40wIDj-dIm5_w_txSoR-29" value="" style="endArrow=none;html=1;rounded=0;" edge="1" parent="w40wIDj-dIm5_w_txSoR-9">
          <mxGeometry width="50" height="50" relative="1" as="geometry">
            <mxPoint x="650.9999999999998" y="89.3591415103801" as="sourcePoint" />
            <mxPoint x="650.9999999999998" as="targetPoint" />
          </mxGeometry>
        </mxCell>
        <mxCell id="w40wIDj-dIm5_w_txSoR-30" value="Читатель" style="text;html=1;align=left;verticalAlign=middle;whiteSpace=wrap;rounded=0;" vertex="1" parent="w40wIDj-dIm5_w_txSoR-9">
          <mxGeometry x="662.6249999999998" y="9.928793501153336" width="69.74999999999996" height="9.928793501153343" as="geometry" />
        </mxCell>
        <mxCell id="w40wIDj-dIm5_w_txSoR-31" value="Дата" style="text;html=1;align=right;verticalAlign=middle;whiteSpace=wrap;rounded=0;" vertex="1" parent="w40wIDj-dIm5_w_txSoR-9">
          <mxGeometry x="743.9999999999999" y="9.928793501153336" width="69.74999999999996" height="9.928793501153343" as="geometry" />
        </mxCell>
        <mxCell id="w40wIDj-dIm5_w_txSoR-32" value="" style="endArrow=none;html=1;rounded=0;" edge="1" parent="w40wIDj-dIm5_w_txSoR-9">
          <mxGeometry width="50" height="50" relative="1" as="geometry">
            <mxPoint x="825.3749999999997" y="89.3591415103801" as="sourcePoint" />
            <mxPoint x="825.3749999999997" as="targetPoint" />
          </mxGeometry>
        </mxCell>
        <mxCell id="w40wIDj-dIm5_w_txSoR-33" value="Контекст" style="text;html=1;align=left;verticalAlign=middle;whiteSpace=wrap;rounded=0;" vertex="1" parent="w40wIDj-dIm5_w_txSoR-9">
          <mxGeometry x="852.3499999999998" y="9.928793501153336" width="52.99999999999998" height="9.928793501153343" as="geometry" />
        </mxCell>
        <mxCell id="w40wIDj-dIm5_w_txSoR-34" value="" style="rounded=0;whiteSpace=wrap;html=1;fillColor=#CCCCCC;" vertex="1" parent="w40wIDj-dIm5_w_txSoR-9">
          <mxGeometry x="867.2249999999996" y="42.69381205495938" width="23.249999999999996" height="9.928793501153343" as="geometry" />
        </mxCell>
        <mxCell id="w40wIDj-dIm5_w_txSoR-35" value="" style="whiteSpace=wrap;html=1;fillColor=#000000;" vertex="1" parent="w40wIDj-dIm5_w_txSoR-9">
          <mxGeometry x="488.79069767441825" y="67.5" width="22.34883720930231" height="20.850466352422025" as="geometry" />
        </mxCell>
        <mxCell id="w40wIDj-dIm5_w_txSoR-36" value="" style="endArrow=none;html=1;rounded=0;" edge="1" parent="w40wIDj-dIm5_w_txSoR-9">
          <mxGeometry width="50" height="50" relative="1" as="geometry">
            <mxPoint y="90" as="sourcePoint" />
            <mxPoint x="929.9999999999995" y="90" as="targetPoint" />
          </mxGeometry>
        </mxCell>
        <mxCell id="w40wIDj-dIm5_w_txSoR-37" value="" style="endArrow=none;html=1;rounded=0;" edge="1" parent="1">
          <mxGeometry width="50" height="50" relative="1" as="geometry">
            <mxPoint x="90" y="730" as="sourcePoint" />
            <mxPoint x="90" y="120" as="targetPoint" />
          </mxGeometry>
        </mxCell>
        <mxCell id="w40wIDj-dIm5_w_txSoR-38" value="" style="endArrow=none;html=1;rounded=0;" edge="1" parent="1">
          <mxGeometry width="50" height="50" relative="1" as="geometry">
            <mxPoint x="1020" y="730" as="sourcePoint" />
            <mxPoint x="1020" y="110" as="targetPoint" />
          </mxGeometry>
        </mxCell>
        <mxCell id="w40wIDj-dIm5_w_txSoR-39" value="" style="endArrow=none;html=1;rounded=0;" edge="1" parent="1">
          <mxGeometry width="50" height="50" relative="1" as="geometry">
            <mxPoint x="90" y="640" as="sourcePoint" />
            <mxPoint x="1020" y="640" as="targetPoint" />
          </mxGeometry>
        </mxCell>
        <mxCell id="w40wIDj-dIm5_w_txSoR-40" value="" style="endArrow=none;html=1;rounded=0;" edge="1" parent="1">
          <mxGeometry width="50" height="50" relative="1" as="geometry">
            <mxPoint x="90" y="730" as="sourcePoint" />
            <mxPoint x="1020" y="730" as="targetPoint" />
          </mxGeometry>
        </mxCell>
        <mxCell id="w40wIDj-dIm5_w_txSoR-41" value="" style="endArrow=none;html=1;rounded=0;" edge="1" parent="1">
          <mxGeometry width="50" height="50" relative="1" as="geometry">
            <mxPoint x="400" y="730" as="sourcePoint" />
            <mxPoint x="400" y="640" as="targetPoint" />
          </mxGeometry>
        </mxCell>
        <mxCell id="w40wIDj-dIm5_w_txSoR-42" value="" style="endArrow=none;html=1;rounded=0;" edge="1" parent="1">
          <mxGeometry width="50" height="50" relative="1" as="geometry">
            <mxPoint x="720" y="730" as="sourcePoint" />
            <mxPoint x="720" y="640" as="targetPoint" />
          </mxGeometry>
        </mxCell>
        <mxCell id="w40wIDj-dIm5_w_txSoR-43" value="NODE" style="text;html=1;align=center;verticalAlign=middle;whiteSpace=wrap;rounded=0;" vertex="1" parent="1">
          <mxGeometry x="90" y="640" width="60" height="20" as="geometry" />
        </mxCell>
        <mxCell id="w40wIDj-dIm5_w_txSoR-44" value="A-0" style="text;html=1;align=center;verticalAlign=middle;whiteSpace=wrap;rounded=0;fontSize=24;" vertex="1" parent="1">
          <mxGeometry x="210" y="670" width="60" height="30" as="geometry" />
        </mxCell>
        <mxCell id="w40wIDj-dIm5_w_txSoR-45" value="TITLE" style="text;html=1;align=center;verticalAlign=middle;whiteSpace=wrap;rounded=0;" vertex="1" parent="1">
          <mxGeometry x="400" y="640" width="50" height="20" as="geometry" />
        </mxCell>
        <mxCell id="w40wIDj-dIm5_w_txSoR-46" value="NUMBER" style="text;html=1;align=center;verticalAlign=middle;whiteSpace=wrap;rounded=0;" vertex="1" parent="1">
          <mxGeometry x="720" y="640" width="70" height="20" as="geometry" />
        </mxCell>
        <mxCell id="w40wIDj-dIm5_w_txSoR-47" value="&lt;span lang=&quot;RU&quot; style=&quot;font-size: 14pt;&quot;&gt;Диаграмма пакетов&lt;/span&gt;" style="text;html=1;align=center;verticalAlign=middle;whiteSpace=wrap;rounded=0;fontFamily=Helvetica;" vertex="1" parent="1">
          <mxGeometry x="405" y="652.5" width="300" height="65" as="geometry" />
        </mxCell>
        <mxCell id="w40wIDj-dIm5_w_txSoR-48" value="" style="endArrow=classic;html=1;rounded=0;exitX=0.5;exitY=1;exitDx=0;exitDy=0;" edge="1" parent="1" source="w40wIDj-dIm5_w_txSoR-3">
          <mxGeometry width="50" height="50" relative="1" as="geometry">
            <mxPoint x="559.71" y="490" as="sourcePoint" />
            <mxPoint x="560" y="550" as="targetPoint" />
          </mxGeometry>
        </mxCell>
        <mxCell id="w40wIDj-dIm5_w_txSoR-49" value="Администрирование" style="rounded=0;whiteSpace=wrap;html=1;" vertex="1" parent="1">
          <mxGeometry x="500" y="550" width="120" height="60" as="geometry" />
        </mxCell>
        <mxCell id="w40wIDj-dIm5_w_txSoR-50" value="&lt;span style=&quot;color: rgba(0, 0, 0, 0); font-family: monospace; font-size: 0px; text-align: start; text-wrap-mode: nowrap;&quot;&gt;%3CmxGraphModel%3E%3Croot%3E%3CmxCell%20id%3D%220%22%2F%3E%3CmxCell%20id%3D%221%22%20parent%3D%220%22%2F%3E%3CmxCell%20id%3D%222%22%20value%3D%22%22%20style%3D%22rounded%3D0%3BwhiteSpace%3Dwrap%3Bhtml%3D1%3B%22%20vertex%3D%221%22%20parent%3D%221%22%3E%3CmxGeometry%20x%3D%22460%22%20y%3D%22160%22%20width%3D%2240%22%20height%3D%2220%22%20as%3D%22geometry%22%2F%3E%3C%2FmxCell%3E%3C%2Froot%3E%3C%2FmxGraphModel%3E&lt;/span&gt;" style="rounded=0;whiteSpace=wrap;html=1;" vertex="1" parent="1">
          <mxGeometry x="500" y="530" width="40" height="20" as="geometry" />
        </mxCell>
      </root>
    </mxGraphModel>
  </diagram>
</mxfile>
